<svg width="37" height="44" viewBox="0 0 37 44" fill="none" xmlns="http://www.w3.org/2000/svg">
<path d="M7.17948 16.1966C7.42977 13.7493 9.49726 11.84 12.0107 11.84H31.4368C31.1865 14.2873 29.119 16.1966 26.6056 16.1966H7.17948Z" fill="#263238" stroke="#263238"/>
<path d="M10.4116 5.20955C10.6633 2.56696 12.889 0.5 15.5975 0.5H34.6718C34.4202 3.14259 32.1945 5.20955 29.486 5.20955H10.4116Z" fill="#263238" stroke="#263238"/>
<path d="M4.52542 26.8431C4.77572 24.3958 6.84321 22.4865 9.35664 22.4865H28.7828C28.5325 24.9338 26.465 26.8431 23.9516 26.8431H4.52542Z" fill="#263238" stroke="#263238"/>
<path d="M0.18 43L1.44 36.52H3.348L2.088 43H0.18ZM1.512 43L1.836 41.344H4.914L4.608 43H1.512ZM2.016 40.588L2.304 39.04H4.86L4.572 40.588H2.016ZM2.448 38.176L2.772 36.52H5.796L5.49 38.176H2.448ZM9.16474 36.52H10.7847L12.2247 40.264L11.5407 40.228L14.3847 36.52H16.0407L14.8167 43H12.9087L13.6647 39.004L14.0247 39.328L12.0807 41.884H11.1807L10.1007 39.076L10.5687 39.184L9.84874 43H7.94074L9.16474 36.52ZM19.5191 36.52H21.4271L20.1671 43H18.2591L19.5191 36.52ZM23.638 43L24.898 36.52H26.806L25.87 41.344H28.192L27.886 43H23.638ZM32.1121 40.264L30.8071 36.628V36.52H32.7151L33.6331 39.364L33.0931 39.22L34.9111 36.52H36.8911V36.628L34.0111 40.345L33.5071 43H31.5991L32.1121 40.264Z" fill="#263238"/>
</svg>
